# Alias OBJ Model File
# Exported from SketchUp, (c) 2000-2012 Trimble Navigation Limited
# File units = inches

mtllib 4eecd19c-912b-4e66-afcc-e2771a421457.mtl

g Mesh1 Model

usemtl Metal_Corrugated_Shiny
v -39.2094 0 7.9136
vt -9.80234 -1.9784
vn 0 1 -0
v -37.9131 0 -12.7513
vt -9.47828 3.18783
v -39.9215 0 -2.50418
vt -9.98038 0.626045
f 1/1/1 2/2/1 3/3/1

v -35.8252 0 17.7921
vt -8.95629 -4.44802
f 2/2/1 1/1/1 4/4/1

vt 1.30526 0
vn -0.895629 0 0.444802
vt -1.30526 0
vn -0.980234 0 0.19784
v -39.2094 -16 7.9136
vt -1.30526 -4
v -35.8252 -16 17.7921
vt 1.30526 -4
f 4/5/2 1/6/3 5/7/3 6/8/2 

vn -0.998038 0 -0.0626045
v -39.9215 -16 -2.50418
f 1/5/3 3/6/4 7/7/4 5/8/3 

vn -0.947828 0 -0.318783
v -37.9131 -16 -12.7513
f 3/5/4 2/6/5 8/7/5 7/8/4 

v -33.321 0 -22.1295
vn -0.833024 0 -0.553236
v -33.321 -16 -22.1295
f 2/5/5 9/6/6 10/7/6 8/8/5 

vt -8.33024 5.53236
f 2/2/1 4/4/1 9/9/1

v -29.9995 0 26.4581
vt -7.49988 -6.61452
f 9/9/1 4/4/1 11/10/1

vn -0.749988 0 0.661452
v -29.9995 -16 26.4581
f 11/5/7 4/6/2 6/7/2 12/8/7 

vt 8.95629 -4.44802
vn 0 -1 -0
vt 9.80234 -1.9784
vt 9.98038 0.626045
vt 9.47828 3.18783
vt 8.33024 5.53236
v -26.4581 -16 -29.9995
vt 6.61452 7.49988
v -17.7921 -16 -35.8252
vt 4.44802 8.95629
v -7.9136 -16 -39.2094
vt 1.9784 9.80234
v 2.50418 -16 -39.9215
vt -0.626045 9.98038
v 12.7513 -16 -37.9131
vt -3.18783 9.47828
v 22.1295 -16 -33.321
vt -5.53236 8.33024
v 29.9995 -16 -26.4581
vt -7.49988 6.61452
v 35.8252 -16 -17.7921
vt -8.95629 4.44802
v 39.2094 -16 -7.9136
vt -9.80234 1.9784
v 39.9215 -16 2.50418
vt -9.98038 -0.626045
v 37.9131 -16 12.7513
vt -9.47828 -3.18783
v 33.321 -16 22.1295
vt -8.33024 -5.53236
v 26.4581 -16 29.9995
vt -6.61452 -7.49988
v 17.7921 -16 35.8252
vt -4.44802 -8.95629
v 7.9136 -16 39.2094
vt -1.9784 -9.80234
v -2.50418 -16 39.9215
vt 0.626045 -9.98038
v -12.7513 -16 37.9131
vt 3.18783 -9.47828
v -22.1295 -16 33.321
vt 5.53236 -8.33024
vt 7.49988 -6.61452
f 6/11/8 5/12/8 7/13/8 8/14/8 10/15/8 13/16/8 14/17/8 15/18/8 16/19/8 17/20/8 18/21/8 19/22/8 20/23/8 21/24/8 22/25/8 23/26/8 24/27/8 25/28/8 26/29/8 27/30/8 28/31/8 29/32/8 30/33/8 12/34/8 

v -26.4581 0 -29.9995
vn -0.661452 0 -0.749988
f 9/5/6 31/6/9 13/7/9 10/8/6 

v -30 0 3.67394e-15
vt -7.5 -9.18485e-16
vt -6.61452 7.49988
f 32/35/1 31/36/1 9/9/1

v -28.9778 0 -7.76457
vt -7.24444 1.94114
f 31/36/1 32/35/1 33/37/1

vt -0.978946 0
vn -0.965926 0 -0.258819
vt 0.978946 0
vn -1 0 3.49938e-16
v -30 22 3.67394e-15
vt 0.978946 5.5
v -28.9778 22 -7.76457
vt -0.978946 5.5
f 33/38/10 32/39/11 34/40/11 35/41/10 

v -28.9778 0 7.76457
vn -0.965926 0 0.258819
v -28.9778 22 7.76457
f 32/38/11 36/39/12 37/40/12 34/41/11 

vt -7.24444 -1.94114
f 32/35/1 11/10/1 36/42/1

f 9/9/1 11/10/1 32/35/1

v -22.1295 0 33.321
vt -5.53236 -8.33024
f 36/42/1 11/10/1 38/43/1

vn -0.553236 0 0.833024
f 38/5/13 11/6/7 12/7/7 30/8/13 

v -12.7513 0 37.9131
vn -0.318783 0 0.947828
f 39/5/14 38/6/13 30/7/13 29/8/14 

v -21.2132 0 21.2132
vt -5.3033 -5.3033
vt -3.18783 -9.47828
f 40/44/1 38/43/1 39/45/1

v -25.9808 0 15
vt -6.49519 -3.75
f 41/46/1 38/43/1 40/44/1

f 36/42/1 38/43/1 41/46/1

vn -0.866025 0 0.5
v -25.9808 22 15
f 36/38/12 41/39/15 42/40/15 37/41/12 

vn -0.707107 0 0.707107
v -21.2132 22 21.2132
f 41/38/15 40/39/16 43/40/16 42/41/15 

v -15 0 25.9808
vn -0.5 0 0.866025
v -15 22 25.9808
f 40/38/16 44/39/17 45/40/17 43/41/16 

vt -3.75 -6.49519
f 40/44/1 39/45/1 44/47/1

v -7.76457 0 28.9778
vt -1.94114 -7.24444
f 44/47/1 39/45/1 46/48/1

v -2.50418 0 39.9215
vt -0.626045 -9.98038
f 46/48/1 39/45/1 47/49/1

vn -0.0626045 0 0.998038
f 47/5/18 39/6/14 29/7/14 28/8/18 

v 7.9136 0 39.2094
vn 0.19784 0 0.980234
f 48/5/19 47/6/18 28/7/18 27/8/19 

v 1.83697e-15 0 30
vt 4.59243e-16 -7.5
vt 1.9784 -9.80234
f 49/50/1 47/49/1 48/51/1

f 46/48/1 47/49/1 49/50/1

vn -0.258819 0 0.965926
vn 1.6797e-16 0 1
v 1.83697e-15 22 30
v -7.76457 22 28.9778
f 46/38/20 49/39/21 50/40/21 51/41/20 

v 7.76457 0 28.9778
vn 0.258819 0 0.965926
v 7.76457 22 28.9778
f 49/38/21 52/39/22 53/40/22 50/41/21 

vt 1.94114 -7.24444
f 49/50/1 48/51/1 52/52/1

v 15 0 25.9808
vt 3.75 -6.49519
f 52/52/1 48/51/1 54/53/1

v 17.7921 0 35.8252
vt 4.44802 -8.95629
f 54/53/1 48/51/1 55/54/1

vn 0.444802 0 0.895629
f 55/5/23 48/6/19 27/7/19 26/8/23 

v 26.4581 0 29.9995
vn 0.661452 0 0.749988
f 56/5/24 55/6/23 26/7/23 25/8/24 

v 21.2132 0 21.2132
vt 5.3033 -5.3033
vt 6.61452 -7.49988
f 57/55/1 55/54/1 56/56/1

f 54/53/1 55/54/1 57/55/1

vn 0.5 0 0.866025
vn 0.707107 0 0.707107
v 21.2132 22 21.2132
v 15 22 25.9808
f 54/38/25 57/39/26 58/40/26 59/41/25 

v 25.9808 0 15
vn 0.866025 0 0.5
v 25.9808 22 15
f 57/38/26 60/39/27 61/40/27 58/41/26 

vt 6.49519 -3.75
f 57/55/1 56/56/1 60/57/1

v 28.9778 0 7.76457
vt 7.24444 -1.94114
f 60/57/1 56/56/1 62/58/1

v 33.321 0 22.1295
vt 8.33024 -5.53236
f 62/58/1 56/56/1 63/59/1

vn 0.833024 0 0.553236
f 63/5/28 56/6/24 25/7/24 24/8/28 

v 37.9131 0 12.7513
vn 0.947828 0 0.318783
f 64/5/29 63/6/28 24/7/28 23/8/29 

v 35.8252 0 -17.7921
vt 8.95629 4.44802
vt 9.47828 -3.18783
f 65/60/1 63/59/1 64/61/1

v 30 0 -0
vt 7.5 0
f 65/60/1 66/62/1 63/59/1

v 29.9995 0 -26.4581
vt 7.49988 6.61452
f 67/63/1 66/62/1 65/60/1

v 28.9778 0 -7.76457
vt 7.24444 1.94114
f 67/63/1 68/64/1 66/62/1

v 25.9808 0 -15
vt 6.49519 3.75
f 67/63/1 69/65/1 68/64/1

v 22.1295 0 -33.321
vt 5.53236 8.33024
f 70/66/1 69/65/1 67/63/1

v 21.2132 0 -21.2132
vt 5.3033 5.3033
f 70/66/1 71/67/1 69/65/1

v 15 0 -25.9808
vt 3.75 6.49519
f 70/66/1 72/68/1 71/67/1

v 12.7513 0 -37.9131
vt 3.18783 9.47828
f 73/69/1 72/68/1 70/66/1

v 7.76457 0 -28.9778
vt 1.94114 7.24444
f 73/69/1 74/70/1 72/68/1

v 2.50418 0 -39.9215
vt 0.626045 9.98038
f 75/71/1 74/70/1 73/69/1

v -5.51091e-15 0 -30
vt -1.37773e-15 7.5
f 75/71/1 76/72/1 74/70/1

v -7.76457 0 -28.9778
vt -1.94114 7.24444
f 75/71/1 77/73/1 76/72/1

v -7.9136 0 -39.2094
vt -1.9784 9.80234
f 78/74/1 77/73/1 75/71/1

v -15 0 -25.9808
vt -3.75 6.49519
f 78/74/1 79/75/1 77/73/1

v -17.7921 0 -35.8252
vt -4.44802 8.95629
f 80/76/1 79/75/1 78/74/1

v -21.2132 0 -21.2132
vt -5.3033 5.3033
f 80/76/1 81/77/1 79/75/1

v -25.9808 0 -15
vt -6.49519 3.75
f 80/76/1 82/78/1 81/77/1

f 31/36/1 82/78/1 80/76/1

f 31/36/1 33/37/1 82/78/1

vn -0.866025 0 -0.5
v -25.9808 22 -15
f 82/38/30 33/39/10 35/40/10 83/41/30 

v -27.0459 22 -7.24693
vt -6.76148 1.81173
f 35/37/1 84/79/1 83/78/1

v -28 22 3.42901e-15
vt -7 -8.57253e-16
f 35/37/1 85/80/1 84/79/1

f 35/37/1 37/42/1 85/80/1

f 37/42/1 35/37/1 34/35/1

v -27.0459 22 7.24693
vt -6.76148 -1.81173
f 37/42/1 86/81/1 85/80/1

f 86/81/1 37/42/1 42/46/1

v -24.2487 22 14
vt -6.06218 -3.5
f 86/81/1 42/46/1 87/82/1

f 87/82/1 42/46/1 43/44/1

v -19.799 22 19.799
vt -4.94975 -4.94975
f 87/82/1 43/44/1 88/83/1

f 88/83/1 43/44/1 45/47/1

v -14 22 24.2487
vt -3.5 -6.06218
f 88/83/1 45/47/1 89/84/1

f 89/84/1 45/47/1 51/48/1

f 44/38/17 46/39/20 51/40/20 45/41/17 

v -7.24693 22 27.0459
vt -1.81173 -6.76148
f 89/84/1 51/48/1 90/85/1

f 90/85/1 51/48/1 50/50/1

v 1.71451e-15 22 28
vt 4.28626e-16 -7
f 90/85/1 50/50/1 91/86/1

v 7.24693 22 27.0459
vt 1.81173 -6.76148
f 91/86/1 50/50/1 92/87/1

f 92/87/1 50/50/1 53/52/1

v 14 22 24.2487
vt 3.5 -6.06218
f 92/87/1 53/52/1 93/88/1

f 93/88/1 53/52/1 59/53/1

f 52/38/22 54/39/25 59/40/25 53/41/22 

v 19.799 22 19.799
vt 4.94975 -4.94975
f 93/88/1 59/53/1 94/89/1

f 94/89/1 59/53/1 58/55/1

v 24.2487 22 14
vt 6.06218 -3.5
f 94/89/1 58/55/1 95/90/1

f 95/90/1 58/55/1 61/57/1

v 27.0459 22 7.24693
vt 6.76148 -1.81173
f 95/90/1 61/57/1 96/91/1

v 28.9778 22 7.76457
f 96/91/1 61/57/1 97/58/1

vn 0.965926 0 0.258819
f 60/38/27 62/39/31 97/40/31 61/41/27 

vn 1 0 -2.37958e-16
v 30 22 -0
f 62/38/31 66/39/32 98/40/32 97/41/31 

f 62/58/1 63/59/1 66/62/1

vn 0.965926 0 -0.258819
v 28.9778 22 -7.76457
f 66/38/32 68/39/33 99/40/33 98/41/32 

vn 0.866025 0 -0.5
v 25.9808 22 -15
f 68/38/33 69/39/34 100/40/34 99/41/33 

vn 0.707107 0 -0.707107
v 21.2132 22 -21.2132
f 69/38/34 71/39/35 101/40/35 100/41/34 

vn 0.5 0 -0.866025
v 15 22 -25.9808
f 71/38/35 72/39/36 102/40/36 101/41/35 

vn 0.258819 0 -0.965926
v 7.76457 22 -28.9778
f 72/38/36 74/39/37 103/40/37 102/41/36 

vn -4.75916e-16 0 -1
v -5.51091e-15 22 -30
f 74/38/37 76/39/38 104/40/38 103/41/37 

vn -0.258819 0 -0.965926
v -7.76457 22 -28.9778
f 76/38/38 77/39/39 105/40/39 104/41/38 

vn -0.5 0 -0.866025
v -15 22 -25.9808
f 77/38/39 79/39/40 106/40/40 105/41/39 

vn -0.707107 0 -0.707107
v -21.2132 22 -21.2132
f 79/38/40 81/39/41 107/40/41 106/41/40 

f 81/38/41 82/39/30 83/40/30 107/41/41 

v -24.2487 22 -14
vt -6.06218 3.5
f 83/78/1 108/92/1 107/77/1

f 83/78/1 84/79/1 108/92/1

vt -0.913683 5.5
vt 0.913683 5.5
v -27.0459 27 -7.24693
vt 0.913683 6.75
v -24.2487 27 -14
vt -0.913683 6.75
f 108/93/30 84/94/10 109/95/10 110/96/30 

vn -1 0 1.39975e-16
v -28 27 3.42901e-15
f 84/93/10 85/94/42 111/95/42 109/96/10 

v -27.0459 27 7.24693
f 85/93/42 86/94/12 112/95/12 111/96/42 

v -24.2487 27 14
f 86/93/12 87/94/15 113/95/15 112/96/12 

v -19.799 27 19.799
f 87/93/15 88/94/16 114/95/16 113/96/15 

v -14 27 24.2487
f 88/93/16 89/94/17 115/95/17 114/96/16 

v -7.24693 27 27.0459
f 89/93/17 90/94/20 116/95/20 115/96/17 

vn -5.59902e-17 0 1
v 1.71451e-15 27 28
f 90/93/20 91/94/43 117/95/43 116/96/20 

v 7.24693 27 27.0459
f 91/93/43 92/94/22 118/95/22 117/96/43 

v 14 27 24.2487
f 92/93/22 93/94/25 119/95/25 118/96/22 

v 19.799 27 19.799
f 93/93/25 94/94/26 120/95/26 119/96/25 

v 24.2487 27 14
f 94/93/26 95/94/27 121/95/27 120/96/26 

v 27.0459 27 7.24693
f 95/93/27 96/94/31 122/95/31 121/96/27 

v 28 22 -0
vn 1 0 -2.79951e-17
v 28 27 -0
f 96/93/31 123/94/44 124/95/44 122/96/31 

vt 7 0
f 96/91/1 97/58/1 123/97/1

f 123/97/1 97/58/1 99/64/1

f 99/64/1 97/58/1 98/62/1

v 27.0459 22 -7.24693
vt 6.76148 1.81173
f 99/64/1 125/98/1 123/97/1

f 100/65/1 125/98/1 99/64/1

v 24.2487 22 -14
vt 6.06218 3.5
f 100/65/1 126/99/1 125/98/1

f 101/67/1 126/99/1 100/65/1

v 19.799 22 -19.799
vt 4.94975 4.94975
f 101/67/1 127/100/1 126/99/1

f 102/68/1 127/100/1 101/67/1

v 14 22 -24.2487
vt 3.5 6.06218
f 102/68/1 128/101/1 127/100/1

f 103/70/1 128/101/1 102/68/1

v 7.24693 22 -27.0459
vt 1.81173 6.76148
f 103/70/1 129/102/1 128/101/1

v -5.14352e-15 22 -28
vt -1.28588e-15 7
f 103/70/1 130/103/1 129/102/1

f 104/72/1 130/103/1 103/70/1

v -7.24693 22 -27.0459
vt -1.81173 6.76148
f 104/72/1 131/104/1 130/103/1

f 105/73/1 131/104/1 104/72/1

v -14 22 -24.2487
vt -3.5 6.06218
f 105/73/1 132/105/1 131/104/1

f 106/75/1 132/105/1 105/73/1

v -19.799 22 -19.799
vt -4.94975 4.94975
f 106/75/1 133/106/1 132/105/1

f 107/77/1 133/106/1 106/75/1

f 107/77/1 108/92/1 133/106/1

v -19.799 27 -19.799
f 133/93/41 108/94/30 110/95/30 134/96/41 

f 110/92/1 113/82/1 134/106/1

f 110/92/1 112/81/1 113/82/1

f 109/79/1 112/81/1 110/92/1

f 112/81/1 109/79/1 111/80/1

v -20 27 1.06581e-14
vt -5 -2.66454e-15
f 134/106/1 113/82/1 135/107/1

f 114/83/1 135/107/1 113/82/1

v -19.3185 27 5.17638
vt -4.82963 -1.2941
f 135/107/1 114/83/1 136/108/1

f 136/108/1 114/83/1 115/84/1

v -17.3205 27 10
vt -4.33013 -2.5
f 136/108/1 115/84/1 137/109/1

v -14.1421 27 14.1421
vt -3.53553 -3.53553
f 137/109/1 115/84/1 138/110/1

v -10 27 17.3205
vt -2.5 -4.33013
f 138/110/1 115/84/1 139/111/1

f 139/111/1 115/84/1 116/85/1

v -5.17638 27 19.3185
vt -1.2941 -4.82963
f 139/111/1 116/85/1 140/112/1

f 140/112/1 116/85/1 117/86/1

v 5.32907e-15 27 20
vt 1.33227e-15 -5
f 140/112/1 117/86/1 141/113/1

f 141/113/1 117/86/1 118/87/1

v 5.17638 27 19.3185
vt 1.2941 -4.82963
f 141/113/1 118/87/1 142/114/1

v 10 27 17.3205
vt 2.5 -4.33013
f 142/114/1 118/87/1 143/115/1

f 143/115/1 118/87/1 119/88/1

v 14.1421 27 14.1421
vt 3.53553 -3.53553
f 143/115/1 119/88/1 144/116/1

f 144/116/1 119/88/1 120/89/1

v 17.3205 27 10
vt 4.33013 -2.5
f 144/116/1 120/89/1 145/117/1

v 19.3185 27 5.17638
vt 4.82963 -1.2941
f 145/117/1 120/89/1 146/118/1

v 20 27 -1.42109e-14
vt 5 3.55271e-15
f 146/118/1 120/89/1 147/119/1

f 147/119/1 120/89/1 121/90/1

v 24.2487 27 -14
f 147/119/1 121/90/1 148/99/1

v 27.0459 27 -7.24693
f 148/99/1 121/90/1 149/98/1

f 149/98/1 121/90/1 122/91/1

f 149/98/1 122/91/1 124/97/1

f 123/93/44 125/94/33 149/95/33 124/96/44 

f 125/93/33 126/94/34 148/95/34 149/96/33 

v 19.799 27 -19.799
f 126/93/34 127/94/35 150/95/35 148/96/34 

v 14 27 -24.2487
f 127/93/35 128/94/36 151/95/36 150/96/35 

v 7.24693 27 -27.0459
f 128/93/36 129/94/37 152/95/37 151/96/36 

vn -2.79951e-16 0 -1
v -5.14352e-15 27 -28
f 129/93/37 130/94/45 153/95/45 152/96/37 

v -7.24693 27 -27.0459
f 130/93/45 131/94/39 154/95/39 153/96/45 

v -14 27 -24.2487
f 131/93/39 132/94/40 155/95/40 154/96/39 

f 132/93/40 133/94/41 134/95/41 155/96/40 

v -19.3185 27 -5.17638
vt -4.82963 1.2941
f 134/106/1 156/120/1 155/105/1

f 134/106/1 135/107/1 156/120/1

vt -0.652631 6.75
vt 0.652631 6.75
vn -1 0 4.47921e-16
v -20 48 1.06581e-14
vt 0.652631 12
v -19.3185 48 -5.17638
vt -0.652631 12
f 156/121/10 135/122/46 157/123/46 158/124/10 

v -19.3185 48 5.17638
f 135/121/46 136/122/12 159/123/12 157/124/46 

v -17.3205 48 10
f 136/121/12 137/122/15 160/123/15 159/124/12 

v -14.1421 48 14.1421
f 137/121/15 138/122/16 161/123/16 160/124/15 

v -10 48 17.3205
f 138/121/16 139/122/17 162/123/17 161/124/16 

v -5.17638 48 19.3185
f 139/121/17 140/122/20 163/123/20 162/124/17 

vn 3.21943e-16 0 1
v 5.32907e-15 48 20
f 140/121/20 141/122/47 164/123/47 163/124/20 

v 5.17638 48 19.3185
f 141/121/47 142/122/22 165/123/22 164/124/47 

v 10 48 17.3205
f 142/121/22 143/122/25 166/123/25 165/124/22 

v 14.1421 48 14.1421
f 143/121/25 144/122/26 167/123/26 166/124/25 

v 17.3205 48 10
f 144/121/26 145/122/27 168/123/27 167/124/26 

v 19.3185 48 5.17638
f 145/121/27 146/122/31 169/123/31 168/124/27 

vn 1 0 -1.03582e-15
v 20 48 -1.42109e-14
f 146/121/31 147/122/48 170/123/48 169/124/31 

v 19.3185 27 -5.17638
v 19.3185 48 -5.17638
f 147/121/48 171/122/33 172/123/33 170/124/48 

vt 4.82963 1.2941
f 150/100/1 171/125/1 147/119/1

v 17.3205 27 -10
vt 4.33013 2.5
f 150/100/1 173/126/1 171/125/1

v 14.1421 27 -14.1421
vt 3.53553 3.53553
f 150/100/1 174/127/1 173/126/1

f 151/101/1 174/127/1 150/100/1

v 10 27 -17.3205
vt 2.5 4.33013
f 151/101/1 175/128/1 174/127/1

f 152/102/1 175/128/1 151/101/1

v 5.17638 27 -19.3185
vt 1.2941 4.82963
f 152/102/1 176/129/1 175/128/1

f 153/103/1 176/129/1 152/102/1

v -1.24345e-14 27 -20
vt -3.10862e-15 5
f 153/103/1 177/130/1 176/129/1

v -5.17638 27 -19.3185
vt -1.2941 4.82963
f 153/103/1 178/131/1 177/130/1

f 154/104/1 178/131/1 153/103/1

v -10 27 -17.3205
vt -2.5 4.33013
f 154/104/1 179/132/1 178/131/1

f 155/105/1 179/132/1 154/104/1

v -14.1421 27 -14.1421
vt -3.53553 3.53553
f 155/105/1 180/133/1 179/132/1

v -17.3205 27 -10
vt -4.33013 2.5
f 155/105/1 181/134/1 180/133/1

f 155/105/1 156/120/1 181/134/1

v -17.3205 48 -10
f 181/121/30 156/122/10 158/123/10 182/124/30 

v 17.3205 48 -10
v 14.1421 48 -14.1421
v 10 48 -17.3205
v 5.17638 48 -19.3185
v -1.24345e-14 48 -20
v -5.17638 48 -19.3185
v -10 48 -17.3205
v -14.1421 48 -14.1421
f 182/134/1 158/120/1 157/107/1 159/108/1 160/109/1 161/110/1 162/111/1 163/112/1 164/113/1 165/114/1 166/115/1 167/116/1 168/117/1 169/118/1 170/119/1 172/125/1 183/126/1 184/127/1 185/128/1 186/129/1 187/130/1 188/131/1 189/132/1 190/133/1 

f 171/121/33 173/122/34 183/123/34 172/124/33 

f 173/121/34 174/122/35 184/123/35 183/124/34 

f 174/121/35 175/122/36 185/123/36 184/124/35 

f 175/121/36 176/122/37 186/123/37 185/124/36 

vn -1.25978e-15 0 -1
f 176/121/37 177/122/49 187/123/49 186/124/37 

f 177/121/49 178/122/39 188/123/39 187/124/49 

f 178/121/39 179/122/40 189/123/40 188/124/39 

f 179/121/40 180/122/41 190/123/41 189/124/40 

f 180/121/41 181/122/30 182/123/30 190/124/41 

f 150/100/1 147/119/1 148/99/1

vn -0.444802 0 -0.895629
f 31/5/9 80/6/50 14/7/50 13/8/9 

vn -0.19784 0 -0.980234
f 80/5/50 78/6/51 15/7/51 14/8/50 

vn 0.0626045 0 -0.998038
f 78/5/51 75/6/52 16/7/52 15/8/51 

vn 0.318783 0 -0.947828
f 75/5/52 73/6/53 17/7/53 16/8/52 

vn 0.553236 0 -0.833024
f 73/5/53 70/6/54 18/7/54 17/8/53 

vn 0.749988 0 -0.661452
f 70/5/54 67/6/55 19/7/55 18/8/54 

vn 0.895629 0 -0.444802
f 67/5/55 65/6/56 20/7/56 19/8/55 

v 39.2094 0 -7.9136
vn 0.980234 0 -0.19784
f 65/5/56 191/6/57 21/7/57 20/8/56 

vt 9.80234 1.9784
f 65/60/1 64/61/1 191/135/1

v 39.9215 0 2.50418
vt 9.98038 -0.626045
f 191/135/1 64/61/1 192/136/1

vn 0.998038 0 0.0626045
f 192/5/58 64/6/29 23/7/29 22/8/58 

f 191/5/57 192/6/58 22/7/58 21/8/57 

