# Alias OBJ Model File
# Exported from SketchUp, (c) 2000-2012 Trimble Navigation Limited
# File units = inches

mtllib d7725821-19f6-496d-8574-81390cf850ee.mtl

g Mesh1 Model

usemtl FrontColor
v -464.491 367 124.46
vt -464.491 -124.46
vn 0 1 -0
v -464.491 367 -124.46
vt -464.491 124.46
v -480.876 367 -0
vt -480.876 0
f 1/1/1 2/2/1 3/3/1

v -416.451 367 240.438
vt -416.451 -240.438
f 2/2/1 1/1/1 4/4/1

usemtl Metal_Corrugated_Shiny
v -464.491 0 124.46
vt 31.4583 0
vn -0.965926 0 0.258819
v -416.451 0 240.438
vt 62.9167 0
vn -0.866025 0 0.5
vt 62.9167 91.75
vt 31.4583 91.75
f 5/5/2 6/6/3 4/7/3 1/8/2 

usemtl Aluminum
v 416.451 0 -240.438
vt -6.94085 4.0073
vn 0 -1 -0
v 464.491 0 -124.46
vt -7.74152 2.07433
v 480.876 0 5.88904e-14
vt -8.01461 -9.81506e-16
v 464.491 0 124.46
vt -7.74152 -2.07433
v 416.451 0 240.438
vt -6.94085 -4.0073
v 340.031 0 340.031
vt -5.66718 -5.66718
v 240.438 0 416.451
vt -4.0073 -6.94085
v 124.46 0 464.491
vt -2.07433 -7.74152
v -2.94452e-14 0 480.876
vt 4.90753e-16 -8.01461
v -124.46 0 464.491
vt 2.07433 -7.74152
v -240.438 0 416.451
vt 4.0073 -6.94085
v -340.031 0 340.031
vt 5.66718 -5.66718
vt 6.94085 -4.0073
vt 7.74152 -2.07433
v -480.876 0 -0
vt 8.01461 0
v -464.491 0 -124.46
vt 7.74152 2.07433
v -416.451 0 -240.438
vt 6.94085 4.0073
v -340.031 0 -340.031
vt 5.66718 5.66718
v -240.438 0 -416.451
vt 4.0073 6.94085
v -124.46 0 -464.491
vt 2.07433 7.74152
v 8.83356e-14 0 -480.876
vt -1.47226e-15 8.01461
v 124.46 0 -464.491
vt -2.07433 7.74152
v 240.438 0 -416.451
vt -4.0073 6.94085
v 340.031 0 -340.031
vt -5.66718 5.66718
f 7/9/4 8/10/4 9/11/4 10/12/4 11/13/4 12/14/4 13/15/4 14/16/4 15/17/4 16/18/4 17/19/4 18/20/4 6/21/4 5/22/4 19/23/4 20/24/4 21/25/4 22/26/4 23/27/4 24/28/4 25/29/4 26/30/4 27/31/4 28/32/4 

usemtl Metal_Corrugated_Shiny
vt 408.958 0
vn 0.965926 0 -0.258819
vt 440.417 0
vn 0.866025 0 -0.5
v 416.451 367 -240.438
vt 440.417 91.75
v 464.491 367 -124.46
vt 408.958 91.75
f 8/33/5 7/34/6 29/35/6 30/36/5 

vt 471.875 0
vn 0.707107 0 -0.707107
v 340.031 367 -340.031
vt 471.875 91.75
f 7/34/6 28/37/7 31/38/7 29/35/6 

vt 503.333 0
vn 0.5 0 -0.866025
v 240.438 367 -416.451
vt 503.333 91.75
f 28/37/7 27/39/8 32/40/8 31/38/7 

vt 534.792 0
vn 0.258819 0 -0.965926
v 124.46 367 -464.491
vt 534.792 91.75
f 27/39/8 26/41/9 33/42/9 32/40/8 

vt 566.25 0
vn 4.47921e-16 0 -1
v 8.83356e-14 367 -480.876
vt 566.25 91.75
f 26/41/9 25/43/10 34/44/10 33/42/9 

vt 597.708 0
vn -0.258819 0 -0.965926
v -124.46 367 -464.491
vt 597.708 91.75
f 25/43/10 24/45/11 35/46/11 34/44/10 

vt 629.167 0
vn -0.5 0 -0.866025
v -240.438 367 -416.451
vt 629.167 91.75
f 24/45/11 23/47/12 36/48/12 35/46/11 

vt 660.625 0
vn -0.707107 0 -0.707107
v -340.031 367 -340.031
vt 660.625 91.75
f 23/47/12 22/49/13 37/50/13 36/48/12 

vt 692.083 0
vn -0.866025 0 -0.5
v -416.451 367 -240.438
vt 692.083 91.75
f 22/49/13 21/51/14 38/52/14 37/50/13 

vt 723.542 0
vn -0.965926 0 -0.258819
vt 723.542 91.75
f 21/51/14 20/53/15 2/54/15 38/52/14 

vt 755 0
vn -1 0 -2.37958e-16
vt 755 91.75
f 20/53/15 19/55/16 3/56/16 2/54/15 

vt -1.77636e-15 0
vt -1.77636e-15 91.75
f 19/57/16 5/5/2 1/8/2 3/58/16 

usemtl FrontColor
vt -416.451 240.438
f 2/2/1 4/4/1 38/59/1

v -340.031 367 340.031
vt -340.031 -340.031
f 38/59/1 4/4/1 39/60/1

usemtl Metal_Corrugated_Shiny
vt 94.375 0
vn -0.707107 0 0.707107
vt 94.375 91.75
f 6/6/3 18/61/17 39/62/17 4/7/3 

vt 125.833 0
vn -0.5 0 0.866025
v -240.438 367 416.451
vt 125.833 91.75
f 18/61/17 17/63/18 40/64/18 39/62/17 

vt 157.292 0
vn -0.258819 0 0.965926
v -124.46 367 464.491
vt 157.292 91.75
f 17/63/18 16/65/19 41/66/19 40/64/18 

vt 188.75 0
vn -1.6797e-16 0 1
v -2.94452e-14 367 480.876
vt 188.75 91.75
f 16/65/19 15/67/20 42/68/20 41/66/19 

vt 220.208 0
vn 0.258819 0 0.965926
v 124.46 367 464.491
vt 220.208 91.75
f 15/67/20 14/69/21 43/70/21 42/68/20 

vt 251.667 0
vn 0.5 0 0.866025
v 240.438 367 416.451
vt 251.667 91.75
f 14/69/21 13/71/22 44/72/22 43/70/21 

vt 283.125 0
vn 0.707107 0 0.707107
v 340.031 367 340.031
vt 283.125 91.75
f 13/71/22 12/73/23 45/74/23 44/72/22 

vt 314.583 0
vn 0.866025 0 0.5
v 416.451 367 240.438
vt 314.583 91.75
f 12/73/23 11/75/24 46/76/24 45/74/23 

vt 346.042 0
vn 0.965926 0 0.258819
v 464.491 367 124.46
vt 346.042 91.75
f 11/75/24 10/77/25 47/78/25 46/76/24 

vt 377.5 0
vn 1 0 3.35941e-16
v 480.876 367 5.88904e-14
vt 377.5 91.75
f 10/77/25 9/79/26 48/80/26 47/78/25 

f 9/79/26 8/33/5 30/36/5 48/80/26 

usemtl FrontColor
vt 464.491 124.46
vt 464.491 -124.46
vt 480.876 -5.88904e-14
f 30/81/1 47/82/1 48/83/1

vt 416.451 240.438
f 29/84/1 47/82/1 30/81/1

vt 416.451 -240.438
f 29/84/1 46/85/1 47/82/1

v 355.397 367 2.31124
vt 355.397 -2.31124
f 29/84/1 49/86/1 46/85/1

v 347.31 367 -91.1716
vt 347.31 91.1716
f 29/84/1 50/87/1 49/86/1

vt 340.031 340.031
f 31/88/1 50/87/1 29/84/1

v 315.303 367 -179.376
vt 315.303 179.376
f 31/88/1 51/89/1 50/87/1

v 261.557 367 -256.291
vt 261.557 256.291
f 31/88/1 52/90/1 51/89/1

vt 240.438 416.451
f 32/91/1 52/90/1 31/88/1

v 189.736 367 -316.674
vt 189.736 316.674
f 32/91/1 53/92/1 52/90/1

vt 124.46 464.491
f 33/93/1 53/92/1 32/91/1

v 104.734 367 -356.412
vt 104.734 356.412
f 33/93/1 54/94/1 53/92/1

v 12.3436 367 -372.795
vt 12.3436 372.795
f 33/93/1 55/95/1 54/94/1

vt 8.83356e-14 480.876
f 34/96/1 55/95/1 33/93/1

v -81.1393 367 -364.708
vt -81.1393 364.708
f 34/96/1 56/97/1 55/95/1

vt -124.46 464.491
f 35/98/1 56/97/1 34/96/1

v -169.344 367 -332.701
vt -169.344 332.701
f 35/98/1 57/99/1 56/97/1

vt -240.438 416.451
f 36/100/1 57/99/1 35/98/1

v -246.258 367 -278.955
vt -246.258 278.955
f 36/100/1 58/101/1 57/99/1

v -306.642 367 -207.134
vt -306.642 207.134
f 36/100/1 59/102/1 58/101/1

vt -340.031 340.031
f 37/103/1 59/102/1 36/100/1

v -346.38 367 -122.132
vt -346.38 122.132
f 37/103/1 60/104/1 59/102/1

v -362.763 367 -29.7416
vt -362.763 29.7416
f 37/103/1 61/105/1 60/104/1

f 61/105/1 37/103/1 38/59/1

f 38/59/1 39/60/1 61/105/1

v -354.675 367 63.7413
vt -354.675 -63.7413
f 61/105/1 39/60/1 62/106/1

v -322.668 367 151.946
vt -322.668 -151.946
f 62/106/1 39/60/1 63/107/1

vt -240.438 -416.451
f 63/107/1 39/60/1 40/108/1

v -268.923 367 228.86
vt -268.923 -228.86
f 63/107/1 40/108/1 64/109/1

v -197.102 367 289.244
vt -197.102 -289.244
f 64/109/1 40/108/1 65/110/1

vt -124.46 -464.491
f 65/110/1 40/108/1 41/111/1

v -112.1 367 328.982
vt -112.1 -328.982
f 65/110/1 41/111/1 66/112/1

vt -2.94452e-14 -480.876
f 66/112/1 41/111/1 42/113/1

v -19.7092 367 345.365
vt -19.7092 -345.365
f 66/112/1 42/113/1 67/114/1

v 73.7736 367 337.277
vt 73.7736 -337.277
f 67/114/1 42/113/1 68/115/1

vt 124.46 -464.491
f 68/115/1 42/113/1 43/116/1

v 161.978 367 305.27
vt 161.978 -305.27
f 68/115/1 43/116/1 69/117/1

vt 240.438 -416.451
f 69/117/1 43/116/1 44/118/1

v 238.893 367 251.525
vt 238.893 -251.525
f 69/117/1 44/118/1 70/119/1

v 299.276 367 179.704
vt 299.276 -179.704
f 70/119/1 44/118/1 71/120/1

vt 340.031 -340.031
f 71/120/1 44/118/1 45/121/1

v 339.014 367 94.7019
vt 339.014 -94.7019
f 71/120/1 45/121/1 72/122/1

f 72/122/1 45/121/1 49/86/1

f 49/86/1 45/121/1 46/85/1

usemtl Metal_Corrugated_Shiny
vt 494.375 0
vn 0.953425 0 0.30163
vt 517.917 0
vn 0.999005 0 0.0445875
v 355.397 712.625 2.31124
vt 517.917 86.4063
v 339.014 712.625 94.7019
vt 494.375 86.4063
f 72/123/27 49/124/28 73/125/28 74/126/27 

vt 541.458 0
vn 0.976505 0 -0.215493
v 347.31 712.625 -91.1716
vt 541.458 86.4063
f 49/124/28 50/127/29 75/128/29 73/125/28 

vt 565 0
vn 0.887458 0 -0.460889
v 315.303 712.625 -179.376
vt 565 86.4063
f 50/127/29 51/129/30 76/130/30 75/128/29 

vt -8.88178e-15 -1.42109e-14
vt 23.5417 -1.42109e-14
vn 0.737932 0 -0.674875
v 261.557 712.625 -256.291
vt 23.5417 86.4062
vt -8.88178e-15 86.4062
f 51/131/30 52/132/31 77/133/31 76/134/30 

vt 23.5417 0
vt 47.0833 0
vn 0.538117 0 -0.84287
v 189.736 712.625 -316.674
vt 47.0833 86.4063
vt 23.5417 86.4063
f 52/135/31 53/136/32 78/137/32 77/138/31 

vt 70.625 0
vn 0.30163 0 -0.953425
v 104.734 712.625 -356.412
vt 70.625 86.4063
f 53/136/32 54/139/33 79/140/33 78/137/32 

vt 94.1667 0
vn 0.0445875 0 -0.999005
v 12.3436 712.625 -372.795
vt 94.1667 86.4063
f 54/139/33 55/141/34 80/142/34 79/140/33 

vt 94.1667 -1.42109e-14
vt 117.708 -1.42109e-14
vn -0.215493 0 -0.976505
v -81.1393 712.625 -364.708
vt 117.708 86.4062
vt 94.1667 86.4062
f 55/143/34 56/144/35 81/145/35 80/146/34 

vt 117.708 0
vt 141.25 0
vn -0.460889 0 -0.887458
v -169.344 712.625 -332.701
vt 141.25 86.4063
vt 117.708 86.4063
f 56/147/35 57/148/36 82/149/36 81/150/35 

vt 141.25 -1.42109e-14
vt 164.792 -1.42109e-14
vn -0.674875 0 -0.737932
v -246.258 712.625 -278.955
vt 164.792 86.4062
vt 141.25 86.4062
f 57/151/36 58/152/37 83/153/37 82/154/36 

vt 164.792 0
vt 188.333 0
vn -0.84287 0 -0.538117
v -306.642 712.625 -207.134
vt 188.333 86.4063
vt 164.792 86.4063
f 58/155/37 59/156/38 84/157/38 83/158/37 

vt 211.875 0
vn -0.953425 0 -0.30163
v -346.38 712.625 -122.132
vt 211.875 86.4063
f 59/156/38 60/159/39 85/160/39 84/157/38 

vt 211.875 -1.42109e-14
vt 235.417 -1.42109e-14
vn -0.999005 0 -0.0445875
v -362.763 712.625 -29.7416
vt 235.417 86.4062
vt 211.875 86.4062
f 60/161/39 61/162/40 86/163/40 85/164/39 

vt 235.417 0
vt 258.958 0
vn -0.976505 0 0.215493
v -354.675 712.625 63.7413
vt 258.958 86.4063
vt 235.417 86.4063
f 61/165/40 62/166/41 87/167/41 86/168/40 

vt 258.958 -1.42109e-14
vt 282.5 -1.42109e-14
vn -0.887458 0 0.460889
v -322.668 712.625 151.946
vt 282.5 86.4062
vt 258.958 86.4062
f 62/169/41 63/170/42 88/171/42 87/172/41 

vt 282.5 0
vt 306.042 0
vn -0.737932 0 0.674875
v -268.923 712.625 228.86
vt 306.042 86.4063
vt 282.5 86.4063
f 63/173/42 64/174/43 89/175/43 88/176/42 

vt 329.583 0
vn -0.538117 0 0.84287
v -197.102 712.625 289.244
vt 329.583 86.4063
f 64/174/43 65/177/44 90/178/44 89/175/43 

vt 329.583 1.42109e-14
vt 353.125 1.42109e-14
vn -0.30163 0 0.953425
v -112.1 712.625 328.982
vt 353.125 86.4063
f 65/179/44 66/180/45 91/181/45 90/178/44 

vt 353.125 0
vt 376.667 0
vn -0.0445875 0 0.999005
v -19.7092 712.625 345.365
vt 376.667 86.4063
f 66/182/45 67/183/46 92/184/46 91/181/45 

vt 400.208 0
vn 0.215493 0 0.976505
v 73.7736 712.625 337.277
vt 400.208 86.4063
f 67/183/46 68/185/47 93/186/47 92/184/46 

vt 400.208 -1.42109e-14
vt 423.75 -1.42109e-14
vn 0.460889 0 0.887458
v 161.978 712.625 305.27
vt 423.75 86.4062
vt 400.208 86.4062
f 68/187/47 69/188/48 94/189/48 93/190/47 

vt 423.75 0
vt 447.292 0
vn 0.674875 0 0.737932
v 238.893 712.625 251.525
vt 447.292 86.4063
vt 423.75 86.4063
f 69/191/48 70/192/49 95/193/49 94/194/48 

vt 470.833 0
vn 0.84287 0 0.538117
v 299.276 712.625 179.704
vt 470.833 86.4063
f 70/192/49 71/195/50 96/196/50 95/193/49 

vt 470.833 1.42109e-14
vt 494.375 1.42109e-14
f 71/197/50 72/198/27 74/126/27 96/196/50 

usemtl FrontColor
f 76/89/1 96/120/1 74/122/1

v 295.069 712.625 -36.7263
vt 295.069 36.7263
f 76/89/1 97/199/1 96/120/1

v 277.942 712.625 -114.333
vt 277.942 114.333
f 76/89/1 98/200/1 97/199/1

f 77/90/1 98/200/1 76/89/1

v 241.314 712.625 -184.863
vt 241.314 184.863
f 77/90/1 99/201/1 98/200/1

f 78/92/1 99/201/1 77/90/1

v 187.679 712.625 -243.51
vt 187.679 243.51
f 78/92/1 100/202/1 99/201/1

v 120.692 712.625 -286.276
vt 120.692 286.276
f 78/92/1 101/203/1 100/202/1

f 79/94/1 101/203/1 78/92/1

v 44.9195 712.625 -310.248
vt 44.9195 310.248
f 79/94/1 102/204/1 101/203/1

f 80/95/1 102/204/1 79/94/1

v -34.4756 712.625 -313.791
vt -34.4756 313.791
f 80/95/1 103/205/1 102/204/1

f 81/97/1 103/205/1 80/95/1

v -112.083 712.625 -296.665
vt -112.083 296.665
f 81/97/1 104/206/1 103/205/1

f 82/99/1 104/206/1 81/97/1

v -182.612 712.625 -260.036
vt -182.612 260.036
f 82/99/1 105/207/1 104/206/1

v -241.259 712.625 -206.401
vt -241.259 206.401
f 82/99/1 106/208/1 105/207/1

f 83/101/1 106/208/1 82/99/1

v -284.025 712.625 -139.415
vt -284.025 139.415
f 83/101/1 107/209/1 106/208/1

f 84/102/1 107/209/1 83/101/1

v -307.997 712.625 -63.6422
vt -307.997 63.6422
f 84/102/1 108/210/1 107/209/1

v -311.541 712.625 15.7529
vt -311.541 -15.7529
f 84/102/1 109/211/1 108/210/1

f 84/102/1 88/107/1 109/211/1

f 85/104/1 88/107/1 84/102/1

f 85/104/1 87/106/1 88/107/1

f 87/106/1 85/104/1 86/105/1

f 89/109/1 109/211/1 88/107/1

v -294.414 712.625 93.3598
vt -294.414 -93.3598
f 109/211/1 89/109/1 110/212/1

v -257.786 712.625 163.89
vt -257.786 -163.89
f 110/212/1 89/109/1 111/213/1

f 111/213/1 89/109/1 90/110/1

v -204.151 712.625 222.536
vt -204.151 -222.536
f 111/213/1 90/110/1 112/214/1

v -137.164 712.625 265.303
vt -137.164 -265.303
f 112/214/1 90/110/1 113/215/1

f 113/215/1 90/110/1 91/112/1

v -61.3915 712.625 289.274
vt -61.3915 -289.274
f 113/215/1 91/112/1 114/216/1

f 114/216/1 91/112/1 92/114/1

v 18.0036 712.625 292.818
vt 18.0036 -292.818
f 114/216/1 92/114/1 115/217/1

f 115/217/1 92/114/1 93/115/1

v 95.6105 712.625 275.692
vt 95.6105 -275.692
f 115/217/1 93/115/1 116/218/1

f 116/218/1 93/115/1 94/117/1

v 166.14 712.625 239.063
vt 166.14 -239.063
f 116/218/1 94/117/1 117/219/1

f 117/219/1 94/117/1 95/119/1

v 224.787 712.625 185.428
vt 224.787 -185.428
f 117/219/1 95/119/1 118/220/1

v 267.553 712.625 118.441
vt 267.553 -118.441
f 118/220/1 95/119/1 119/221/1

f 119/221/1 95/119/1 96/120/1

v 291.525 712.625 42.6688
vt 291.525 -42.6688
f 119/221/1 96/120/1 120/222/1

f 120/222/1 96/120/1 97/199/1

usemtl Metal_Corrugated_Shiny
vt 418.25 0
vn 0.984639 0 0.174602
vt 438.167 0
vn 0.996279 0 -0.0861904
v 295.069 779.688 -36.7263
vt 438.167 16.7656
v 291.525 779.688 42.6688
vt 418.25 16.7656
f 120/223/51 97/224/52 121/225/52 122/226/51 

vt 438.167 -2.84217e-14
vt 458.083 -2.84217e-14
vn 0.940024 0 -0.341109
v 277.942 779.688 -114.333
vt 458.083 16.7656
f 97/227/52 98/228/53 123/229/53 121/225/52 

vt 478 -2.84217e-14
vn 0.819707 0 -0.572782
v 241.314 779.688 -184.863
vt 478 16.7656
f 98/228/53 99/230/54 124/231/54 123/229/53 

vt -3.55271e-15 -2.84217e-14
vt 19.9167 -2.84217e-14
vn 0.64353 0 -0.765421
v 187.679 779.688 -243.51
vt 19.9167 16.7656
vt -3.55271e-15 16.7656
f 99/232/54 100/233/55 125/234/55 124/235/54 

vt 19.9167 0
vt 39.8333 0
vn 0.423496 0 -0.905898
v 120.692 779.688 -286.276
vt 39.8333 16.7656
f 100/236/55 101/237/56 126/238/56 125/234/55 

vt 59.75 0
vn 0.174602 0 -0.984639
v 44.9195 779.688 -310.248
vt 59.75 16.7656
f 101/237/56 102/239/57 127/240/57 126/238/56 

vt 79.6667 0
vn -0.0861904 0 -0.996279
v -34.4756 779.688 -313.791
vt 79.6667 16.7656
f 102/239/57 103/241/58 128/242/58 127/240/57 

vt 79.6667 -2.84217e-14
vt 99.5833 -2.84217e-14
vn -0.341109 0 -0.940024
v -112.083 779.688 -296.665
vt 99.5833 16.7656
f 103/243/58 104/244/59 129/245/59 128/242/58 

vt 99.5833 0
vt 119.5 0
vn -0.572782 0 -0.819707
v -182.612 779.688 -260.036
vt 119.5 16.7656
f 104/246/59 105/247/60 130/248/60 129/245/59 

vt 119.5 -2.84217e-14
vt 139.417 -2.84217e-14
vn -0.765421 0 -0.64353
v -241.259 779.688 -206.401
vt 139.417 16.7656
f 105/249/60 106/250/61 131/251/61 130/248/60 

vt 139.417 0
vt 159.333 0
vn -0.905898 0 -0.423496
v -284.025 779.688 -139.415
vt 159.333 16.7656
f 106/252/61 107/253/62 132/254/62 131/251/61 

vt 159.333 -2.84217e-14
vt 179.25 -2.84217e-14
vn -0.984639 0 -0.174602
v -307.997 779.688 -63.6422
vt 179.25 16.7656
f 107/255/62 108/256/63 133/257/63 132/254/62 

vt 199.167 -2.84217e-14
vn -0.996279 0 0.0861904
v -311.541 779.688 15.7529
vt 199.167 16.7656
f 108/256/63 109/258/64 134/259/64 133/257/63 

vt 199.167 0
vt 219.083 0
vn -0.940024 0 0.341109
v -294.414 779.688 93.3598
vt 219.083 16.7656
f 109/260/64 110/261/65 135/262/65 134/259/64 

vt 239 0
vn -0.819707 0 0.572782
v -257.786 779.688 163.89
vt 239 16.7656
f 110/261/65 111/263/66 136/264/66 135/262/65 

vt 258.917 0
vn -0.64353 0 0.765421
v -204.151 779.688 222.536
vt 258.917 16.7656
f 111/263/66 112/265/67 137/266/67 136/264/66 

vt 278.833 0
vn -0.423496 0 0.905898
v -137.164 779.688 265.303
vt 278.833 16.7656
f 112/265/67 113/267/68 138/268/68 137/266/67 

vt 278.833 -2.84217e-14
vt 298.75 -2.84217e-14
vn -0.174602 0 0.984639
v -61.3915 779.688 289.274
vt 298.75 16.7656
f 113/269/68 114/270/69 139/271/69 138/268/68 

vt 298.75 0
vt 318.667 0
vn 0.0861904 0 0.996279
v 18.0036 779.688 292.818
vt 318.667 16.7656
f 114/272/69 115/273/70 140/274/70 139/271/69 

vt 338.583 0
vn 0.341109 0 0.940024
v 95.6105 779.688 275.692
vt 338.583 16.7656
f 115/273/70 116/275/71 141/276/71 140/274/70 

vt 358.5 0
vn 0.572782 0 0.819707
v 166.14 779.688 239.063
vt 358.5 16.7656
f 116/275/71 117/277/72 142/278/72 141/276/71 

vt 358.5 -2.84217e-14
vt 378.417 -2.84217e-14
vn 0.765421 0 0.64353
v 224.787 779.688 185.428
vt 378.417 16.7656
f 117/279/72 118/280/73 143/281/73 142/278/72 

vt 378.417 0
vt 398.333 0
vn 0.905898 0 0.423496
v 267.553 779.688 118.441
vt 398.333 16.7656
f 118/282/73 119/283/74 144/284/74 143/281/73 

vt 398.333 -2.84217e-14
vt 418.25 -2.84217e-14
f 119/285/74 120/286/51 122/226/51 144/284/74 

usemtl FrontColor
f 123/200/1 144/221/1 122/222/1

v 247.443 779.688 -27.29
vt 247.443 27.29
f 123/200/1 145/287/1 144/221/1

f 124/201/1 145/287/1 123/200/1

v 233.291 779.688 -91.4181
vt 233.291 91.4181
f 124/201/1 146/288/1 145/287/1

v 203.024 779.688 -149.698
vt 203.024 149.698
f 124/201/1 147/289/1 146/288/1

f 125/202/1 147/289/1 124/201/1

v 158.705 779.688 -198.159
vt 158.705 198.159
f 125/202/1 148/290/1 147/289/1

f 126/203/1 148/290/1 125/202/1

v 103.352 779.688 -233.498
vt 103.352 233.498
f 126/203/1 149/291/1 148/290/1

f 127/204/1 149/291/1 126/203/1

v 40.74 779.688 -253.306
vt 40.74 253.306
f 127/204/1 150/292/1 149/291/1

v -24.8656 779.688 -256.234
vt -24.8656 256.234
f 127/204/1 151/293/1 150/292/1

f 128/205/1 151/293/1 127/204/1

v -88.9937 779.688 -242.082
vt -88.9937 242.082
f 128/205/1 152/294/1 151/293/1

f 129/206/1 152/294/1 128/205/1

v -147.274 779.688 -211.815
vt -147.274 211.815
f 129/206/1 153/295/1 152/294/1

f 130/207/1 153/295/1 129/206/1

v -195.735 779.688 -167.496
vt -195.735 167.496
f 130/207/1 154/296/1 153/295/1

v -231.073 779.688 -112.144
vt -231.073 112.144
f 130/207/1 155/297/1 154/296/1

f 131/208/1 155/297/1 130/207/1

v -250.882 779.688 -49.5312
vt -250.882 49.5312
f 131/208/1 156/298/1 155/297/1

f 132/209/1 156/298/1 131/208/1

v -253.81 779.688 16.0745
vt -253.81 -16.0745
f 132/209/1 157/299/1 156/298/1

f 132/209/1 136/213/1 157/299/1

f 132/209/1 135/212/1 136/213/1

f 133/210/1 135/212/1 132/209/1

f 135/212/1 133/210/1 134/211/1

v -239.658 779.688 80.2026
vt -239.658 -80.2026
f 136/213/1 158/300/1 157/299/1

f 158/300/1 136/213/1 137/214/1

v -209.391 779.688 138.483
vt -209.391 -138.483
f 158/300/1 137/214/1 159/301/1

v -165.071 779.688 186.944
vt -165.071 -186.944
f 159/301/1 137/214/1 160/302/1

f 160/302/1 137/214/1 138/215/1

v -109.719 779.688 222.282
vt -109.719 -222.282
f 160/302/1 138/215/1 161/303/1

f 161/303/1 138/215/1 139/216/1

v -47.1068 779.688 242.09
vt -47.1068 -242.09
f 161/303/1 139/216/1 162/304/1

f 162/304/1 139/216/1 140/217/1

v 18.4989 779.688 245.019
vt 18.4989 -245.019
f 162/304/1 140/217/1 163/305/1

f 163/305/1 140/217/1 141/218/1

v 82.627 779.688 230.867
vt 82.627 -230.867
f 163/305/1 141/218/1 164/306/1

v 140.907 779.688 200.6
vt 140.907 -200.6
f 164/306/1 141/218/1 165/307/1

f 165/307/1 141/218/1 142/219/1

v 189.368 779.688 156.28
vt 189.368 -156.28
f 165/307/1 142/219/1 166/308/1

f 166/308/1 142/219/1 143/220/1

v 224.707 779.688 100.928
vt 224.707 -100.928
f 166/308/1 143/220/1 167/309/1

v 244.515 779.688 38.3157
vt 244.515 -38.3157
f 167/309/1 143/220/1 168/310/1

f 168/310/1 143/220/1 144/221/1

f 168/310/1 144/221/1 145/287/1

usemtl Metal_Corrugated_Shiny
vt 345.625 0
vt 362.083 0
v 247.443 1082.25 -27.29
vt 362.083 75.6406
v 244.515 1082.25 38.3157
vt 345.625 75.6406
f 168/311/51 145/312/52 169/313/52 170/314/51 

vt 378.542 0
v 233.291 1082.25 -91.4181
vt 378.542 75.6406
f 145/312/52 146/315/53 171/316/53 169/313/52 

vt 378.542 2.84217e-14
vt 395 2.84217e-14
v 203.024 1082.25 -149.698
vt 395 75.6406
f 146/317/53 147/318/54 172/319/54 171/316/53 

vt 1.77636e-15 -2.84217e-14
vt 16.4583 -2.84217e-14
v 158.705 1082.25 -198.159
vt 16.4583 75.6406
vt 1.77636e-15 75.6406
f 147/320/54 148/321/55 173/322/55 172/323/54 

vt 16.4583 2.84217e-14
vt 32.9167 2.84217e-14
v 103.352 1082.25 -233.498
vt 32.9167 75.6406
f 148/324/55 149/325/56 174/326/56 173/322/55 

vt 32.9167 0
vt 49.375 0
v 40.74 1082.25 -253.306
vt 49.375 75.6406
f 149/327/56 150/328/57 175/329/57 174/326/56 

vt 65.8333 0
v -24.8656 1082.25 -256.234
vt 65.8333 75.6406
f 150/328/57 151/330/58 176/331/58 175/329/57 

vt 82.2917 0
v -88.9937 1082.25 -242.082
vt 82.2917 75.6406
f 151/330/58 152/332/59 177/333/59 176/331/58 

vt 98.75 0
v -147.274 1082.25 -211.815
vt 98.75 75.6406
f 152/332/59 153/334/60 178/335/60 177/333/59 

vt 115.208 0
v -195.735 1082.25 -167.496
vt 115.208 75.6406
f 153/334/60 154/336/61 179/337/61 178/335/60 

vt 115.208 2.84217e-14
vt 131.667 2.84217e-14
v -231.073 1082.25 -112.144
vt 131.667 75.6406
f 154/338/61 155/339/62 180/340/62 179/337/61 

vt 131.667 0
vt 148.125 0
v -250.882 1082.25 -49.5312
vt 148.125 75.6406
f 155/341/62 156/342/63 181/343/63 180/340/62 

vt 164.583 0
v -253.81 1082.25 16.0745
vt 164.583 75.6406
f 156/342/63 157/344/64 182/345/64 181/343/63 

vt 181.042 0
v -239.658 1082.25 80.2026
vt 181.042 75.6406
f 157/344/64 158/346/65 183/347/65 182/345/64 

vt 181.042 2.84217e-14
vt 197.5 2.84217e-14
v -209.391 1082.25 138.483
vt 197.5 75.6406
f 158/348/65 159/349/66 184/350/66 183/347/65 

vt 213.958 2.84217e-14
v -165.071 1082.25 186.944
vt 213.958 75.6406
f 159/349/66 160/351/67 185/352/67 184/350/66 

vt 230.417 2.84217e-14
v -109.719 1082.25 222.282
vt 230.417 75.6406
f 160/351/67 161/353/68 186/354/68 185/352/67 

vt 230.417 0
vt 246.875 0
v -47.1068 1082.25 242.09
vt 246.875 75.6406
f 161/355/68 162/356/69 187/357/69 186/354/68 

vt 263.333 0
v 18.4989 1082.25 245.019
vt 263.333 75.6406
f 162/356/69 163/358/70 188/359/70 187/357/69 

vt 263.333 2.84217e-14
vt 279.792 2.84217e-14
v 82.627 1082.25 230.867
vt 279.792 75.6406
f 163/360/70 164/361/71 189/362/71 188/359/70 

vt 279.792 0
vt 296.25 0
v 140.907 1082.25 200.6
vt 296.25 75.6406
f 164/363/71 165/364/72 190/365/72 189/362/71 

vt 312.708 0
v 189.368 1082.25 156.28
vt 312.708 75.6406
f 165/364/72 166/366/73 191/367/73 190/365/72 

vt 312.708 2.84217e-14
vt 329.167 2.84217e-14
v 224.707 1082.25 100.928
vt 329.167 75.6406
f 166/368/73 167/369/74 192/370/74 191/367/73 

vt 345.625 2.84217e-14
f 167/369/74 168/371/51 170/314/51 192/370/74 

usemtl FrontColor
f 173/290/1 174/291/1 175/292/1 176/293/1 177/294/1 178/295/1 179/296/1 180/297/1 181/298/1 182/299/1 183/300/1 184/301/1 185/302/1 186/303/1 187/304/1 188/305/1 189/306/1 190/307/1 191/308/1 192/309/1 170/310/1 169/287/1 171/288/1 172/289/1 

f 123/200/1 122/222/1 121/199/1

f 76/89/1 74/122/1 75/87/1

f 75/87/1 74/122/1 73/86/1

