# Alias OBJ Model File
# Exported from SketchUp, (c) 2000-2012 Trimble Navigation Limited
# File units = millimeters

mtllib c16617df-50b4-436f-a4c6-93e630f9fcb6.mtl

g Mesh1 Model

usemtl FrontColor
v 10.5359 0 -10.5359
vt -0.414799 0.414799
vn 0 -1 -0
v 12.9038 0 -7.45
vt -0.508023 0.293307
v 14.3923 0 -3.8564
vt -0.566626 0.151827
v 14.9 0 -0
vt -0.586614 0
v 14.3923 0 3.8564
vt -0.566626 -0.151827
v 12.9038 0 7.45
vt -0.508023 -0.293307
v 10.5359 0 10.5359
vt -0.414799 -0.414799
v 7.45 0 12.9038
vt -0.293307 -0.508023
v 3.8564 0 14.3923
vt -0.151827 -0.566626
v -2.73709e-15 0 14.9
vt 1.07759e-16 -0.586614
v -3.8564 0 14.3923
vt 0.151827 -0.566626
v -7.45 0 12.9038
vt 0.293307 -0.508023
v -10.5359 0 10.5359
vt 0.414799 -0.414799
v -12.9038 0 7.45
vt 0.508023 -0.293307
v -14.3923 0 3.8564
vt 0.566626 -0.151827
v -14.9 0 -1.82472e-15
vt 0.586614 7.18395e-17
v -14.3923 0 -3.8564
vt 0.566626 0.151827
v -12.9038 0 -7.45
vt 0.508023 0.293307
v -10.5359 0 -10.5359
vt 0.414799 0.414799
v -7.45 0 -12.9038
vt 0.293307 0.508023
v -3.8564 0 -14.3923
vt 0.151827 0.566626
v 9.12362e-16 0 -14.9
vt -3.59198e-17 0.586614
v 3.8564 0 -14.3923
vt -0.151827 0.566626
v 7.45 0 -12.9038
vt -0.293307 0.508023
f 1/1/1 2/2/1 3/3/1 4/4/1 5/5/1 6/6/1 7/7/1 8/8/1 9/9/1 10/10/1 11/11/1 12/12/1 13/13/1 14/14/1 15/15/1 16/16/1 17/17/1 18/18/1 19/19/1 20/20/1 21/21/1 22/22/1 23/23/1 24/24/1 

usemtl Metal_Steel_Textured
vt -0.00319035 0
vn 0.866025 0 -0.5
vt 0.00319035 0
vn 0.707107 0 -0.707107
v 10.5359 71.1 -10.5359
vt 0.00319035 0.116634
v 12.9038 71.1 -7.45
vt -0.00319035 0.116634
f 2/25/2 1/26/3 25/27/3 26/28/2 

vn 0.5 0 -0.866025
v 7.45 71.1 -12.9038
f 1/25/3 24/26/4 27/27/4 25/28/3 

vn 0.258819 0 -0.965926
v 3.8564 71.1 -14.3923
f 24/25/4 23/26/5 28/27/5 27/28/4 

vn 3.07946e-16 0 -1
v 9.12362e-16 71.1 -14.9
f 23/25/5 22/26/6 29/27/6 28/28/5 

vn -0.258819 0 -0.965926
v -3.8564 71.1 -14.3923
f 22/25/6 21/26/7 30/27/7 29/28/6 

vn -0.5 0 -0.866025
v -7.45 71.1 -12.9038
f 21/25/7 20/26/8 31/27/8 30/28/7 

vn -0.707107 0 -0.707107
v -10.5359 71.1 -10.5359
f 20/25/8 19/26/9 32/27/9 31/28/8 

vn -0.866025 0 -0.5
v -12.9038 71.1 -7.45
f 19/25/9 18/26/10 33/27/10 32/28/9 

vn -0.965926 0 -0.258819
v -14.3923 71.1 -3.8564
f 18/25/10 17/26/11 34/27/11 33/28/10 

vn -1 0 -2.51956e-16
v -14.9 71.1 -1.82472e-15
f 17/25/11 16/26/12 35/27/12 34/28/11 

vn -0.965926 0 0.258819
v -14.3923 71.1 3.8564
f 16/25/12 15/26/13 36/27/13 35/28/12 

vn -0.866025 0 0.5
v -12.9038 71.1 7.45
f 15/25/13 14/26/14 37/27/14 36/28/13 

vn -0.707107 0 0.707107
v -10.5359 71.1 10.5359
f 14/25/14 13/26/15 38/27/15 37/28/14 

vn -0.5 0 0.866025
v -7.45 71.1 12.9038
f 13/25/15 12/26/16 39/27/16 38/28/15 

vn -0.258819 0 0.965926
v -3.8564 71.1 14.3923
f 12/25/16 11/26/17 40/27/17 39/28/16 

vn -1.53973e-16 0 1
v -2.73709e-15 71.1 14.9
f 11/25/17 10/26/18 41/27/18 40/28/17 

vn 0.258819 0 0.965926
v 3.8564 71.1 14.3923
f 10/25/18 9/26/19 42/27/19 41/28/18 

vn 0.5 0 0.866025
v 7.45 71.1 12.9038
f 9/25/19 8/26/20 43/27/20 42/28/19 

vn 0.707107 0 0.707107
v 10.5359 71.1 10.5359
f 8/25/20 7/26/21 44/27/21 43/28/20 

vn 0.866025 0 0.5
v 12.9038 71.1 7.45
f 7/25/21 6/26/22 45/27/22 44/28/21 

vn 0.965926 0 0.258819
v 14.3923 71.1 3.8564
f 6/25/22 5/26/23 46/27/23 45/28/22 

vn 1 0 1.53973e-16
v 14.9 71.1 -0
f 5/25/23 4/26/24 47/27/24 46/28/23 

vn 0.965926 0 -0.258819
v 14.3923 71.1 -3.8564
f 4/25/24 3/26/25 48/27/25 47/28/24 

f 3/25/25 2/26/2 26/27/2 48/28/25 

v 4.87793 90.3 -1.30704
vt -0.00108129 0.128309
vn 0.859428 0.456458 -0.230283
vt -0.00319035 0.0929728
vt 0.00319035 0.0929728
vn 0.770542 0.456458 -0.444873
v 4.37343 90.3 -2.525
vt 0.00108129 0.128309
f 49/29/26 48/30/26 26/31/27 50/32/27 

v 5.05 90.3 -4.58245e-15
vn 0.889745 0.456458 1.81645e-16
f 51/29/28 47/30/28 48/31/26 49/32/26 

v 4.87793 90.3 1.30704
vn 0.859428 0.456458 0.230283
f 52/29/29 46/30/29 47/31/28 51/32/28 

v 4.37343 90.3 2.525
vn 0.770542 0.456458 0.444873
f 53/29/30 45/30/30 46/31/29 52/32/29 

v 3.57089 90.3 3.57089
vn 0.629145 0.456458 0.629145
f 54/29/31 44/30/31 45/31/30 53/32/30 

v 2.525 90.3 4.37343
vn 0.444873 0.456458 0.770542
f 55/29/32 43/30/32 44/31/31 54/32/31 

v 1.30704 90.3 4.87793
vn 0.230283 0.456458 0.859428
f 56/29/33 42/30/33 43/31/32 55/32/32 

v 2.11497e-15 90.3 5.05
vn -2.79453e-17 0.456458 0.889745
f 57/29/34 41/30/34 42/31/33 56/32/33 

v -1.30704 90.3 4.87793
vn -0.230283 0.456458 0.859428
f 58/29/35 40/30/35 41/31/34 57/32/34 

v -2.525 90.3 4.37343
vn -0.444873 0.456458 0.770542
f 59/29/36 39/30/36 40/31/35 58/32/35 

v -3.57089 90.3 3.57089
vn -0.629145 0.456458 0.629145
f 60/29/37 38/30/37 39/31/36 59/32/36 

v -4.37343 90.3 2.525
vn -0.770542 0.456458 0.444873
f 61/29/38 37/30/38 38/31/37 60/32/37 

v -4.87793 90.3 1.30704
vn -0.859428 0.456458 0.230283
f 62/29/39 36/30/39 37/31/38 61/32/38 

v -5.05 90.3 2.11497e-15
vn -0.889745 0.456458 -2.93426e-16
f 63/29/40 35/30/40 36/31/39 62/32/39 

v -4.87793 90.3 -1.30704
vn -0.859428 0.456458 -0.230283
f 64/29/41 34/30/41 35/31/40 63/32/40 

v -4.37343 90.3 -2.525
vn -0.770542 0.456458 -0.444873
f 65/29/42 33/30/42 34/31/41 64/32/41 

v -3.57089 90.3 -3.57089
vn -0.629145 0.456458 -0.629145
f 66/29/43 32/30/43 33/31/42 65/32/42 

v -2.525 90.3 -4.37343
vn -0.444873 0.456458 -0.770542
f 67/29/44 31/30/44 32/31/43 66/32/43 

v -1.30704 90.3 -4.87793
vn -0.230283 0.456458 -0.859428
f 68/29/45 30/30/45 31/31/44 67/32/44 

v -3.52496e-15 90.3 -5.05
vn 1.46713e-16 0.456458 -0.889745
f 69/29/46 29/30/46 30/31/45 68/32/45 

v 1.30704 90.3 -4.87793
vn 0.230283 0.456458 -0.859428
f 70/29/47 28/30/47 29/31/46 69/32/46 

v 2.525 90.3 -4.37343
vn 0.444873 0.456458 -0.770542
f 71/29/48 27/30/48 28/31/47 70/32/47 

v 3.57089 90.3 -3.57089
vn 0.629145 0.456458 -0.629145
f 72/29/49 25/30/49 27/31/48 71/32/48 

f 50/29/27 26/30/27 25/31/49 72/32/49 

vt -0.00717426 0.00414206
vn 0 1 -0
vt -0.00800185 0.00214409
vt -0.00828412 -3.46945e-18
vt -0.00800185 -0.00214409
vt -0.00717426 -0.00414206
vt -0.00585776 -0.00585776
vt -0.00414206 -0.00717426
vt -0.00214409 -0.00800185
vt 3.46945e-18 -0.00828412
vt 0.00214409 -0.00800185
vt 0.00414206 -0.00717426
vt 0.00585776 -0.00585776
vt 0.00717426 -0.00414206
vt 0.00800185 -0.00214409
vt 0.00828412 7.51714e-18
vt 0.00800185 0.00214409
vt 0.00717426 0.00414206
vt 0.00585776 0.00585776
vt 0.00414206 0.00717426
vt 0.00214409 0.00800185
vt -5.78241e-18 0.00828412
vt -0.00214409 0.00800185
vt -0.00414206 0.00717426
vt -0.00585776 0.00585776
f 65/33/50 64/34/50 63/35/50 62/36/50 61/37/50 60/38/50 59/39/50 58/40/50 57/41/50 56/42/50 55/43/50 54/44/50 53/45/50 52/46/50 51/47/50 49/48/50 50/49/50 72/50/50 71/51/50 70/52/50 69/53/50 68/54/50 67/55/50 66/56/50 

